<svg width="54" height="54" viewBox="0 0 54 54" fill="none" xmlns="http://www.w3.org/2000/svg">
<g id="&#240;&#159;&#166;&#134; icon &#34;cart&#34;">
<path id="Vector" d="M45.75 52C47.821 52 49.5 50.321 49.5 48.25C49.5 46.179 47.821 44.5 45.75 44.5C43.679 44.5 42 46.179 42 48.25C42 50.321 43.679 52 45.75 52Z" fill="black" stroke="black" stroke-width="3" stroke-linecap="round" stroke-linejoin="round"/>
<path id="Vector_2" d="M20.75 52C22.821 52 24.5 50.321 24.5 48.25C24.5 46.179 22.821 44.5 20.75 44.5C18.6789 44.5 17 46.179 17 48.25C17 50.321 18.6789 52 20.75 52Z" fill="black" stroke="black" stroke-width="3" stroke-linecap="round" stroke-linejoin="round"/>
<path id="Vector_3" d="M9.5 6.99999H52L47 34.5H14.5L9.5 6.99999ZM9.5 6.99999C9.08333 5.33332 7 2 2 2" stroke="black" stroke-width="3" stroke-linecap="round" stroke-linejoin="round"/>
<path id="Vector_4" d="M47 34.5H14.5H10.0769C5.61615 34.5 3.25 36.453 3.25 39.5C3.25 42.547 5.61615 44.5 10.0769 44.5H45.75" stroke="black" stroke-width="3" stroke-linecap="round" stroke-linejoin="round"/>
</g>
</svg>
